<svg xmlns="http://www.w3.org/2000/svg" viewBox="0 0 153.35 31.99">
    <path fill="#c3ceef"
          d="M31.51,3.53S29.25,1,27.22,2.71a.7.7,0,0,0-.18.2L24.62,6.52c-2,3-4.64,6.84-5.72,8.23a.16.16,0,0,0,.2.25,12.41,12.41,0,0,0,2.4-1.42.21.21,0,0,1,.31.28C20.52,15.94,18,19.68,17.22,21a.18.18,0,0,0,.26.23l.8-.63a.24.24,0,0,1,.16-.05c.33,0,.52.27.68,0l2.25-3.73a5.49,5.49,0,0,1,3.45-2.67c2.3-.61,5.58-2.16,5.47-6a3.82,3.82,0,0,0,0-.57c-.08-.82-.72-2.23.84-3a3.37,3.37,0,0,1,.54-.23l.76-.28Z"
          transform="translate(-2.89 -1.95)"/>
    <path fill="#c3ceef"
          d="M33.64,2.13H41V20.39h0q.33-.48,4.91-6.26c1.51-1.85,2.26-2.8,2.26-2.86h8.12L47.69,22.08s3.18,4,9.47,11.85h-9Q48,33.56,41,24.79v9.14H33.64Z"
          transform="translate(-2.89 -1.95)"/>
    <path fill="#c3ceef"
          d="M78.84,2.13h7.39V20.39h0q.33-.48,4.91-6.26c1.5-1.85,2.26-2.8,2.26-2.86h8.12L92.88,22.08s3.19,4,9.48,11.85h-9q-.23-.37-7.17-9.14v9.14H78.84Z"
          transform="translate(-2.89 -1.95)"/>
    <path fill="#c3ceef"
          d="M65.09,9.63a11.19,11.19,0,0,0-9.39,4.55,12.92,12.92,0,0,0-2.17,7.63q0,7.49,5.94,10.79a13.46,13.46,0,0,0,6.13,1.33h3.31V27.32H65.6c-3,0-5.07-1.16-6.13-3.46a6.63,6.63,0,0,1-.33-1.94v-.44c0-2.17,1.15-3.79,3.44-4.84a8.87,8.87,0,0,1,2.62-.44h5.35v-.11h0V33.93h6.57V16.2h0V9.63Z"
          transform="translate(-2.89 -1.95)"/>
    <path fill="#c3ceef"
          d="M110.29,9.62a11.19,11.19,0,0,0-9.39,4.55,12.93,12.93,0,0,0-2.17,7.64q0,7.47,5.94,10.78a13.46,13.46,0,0,0,6.13,1.33h3.31V27.31H110.8q-4.55,0-6.13-3.46a6.62,6.62,0,0,1-.33-1.93v-.45q0-3.25,3.44-4.84a8.87,8.87,0,0,1,2.62-.44h5.35v-.11h0V33.92h6.57V16.19h0V9.62Z"
          transform="translate(-2.89 -1.95)"/>
    <path fill="#c3ceef"
          d="M144.16,9.62a11.19,11.19,0,0,0-9.39,4.55,12.93,12.93,0,0,0-2.18,7.64q0,7.47,5.95,10.78a13.4,13.4,0,0,0,6.13,1.33H148V27.31h-3.3q-4.56,0-6.13-3.46a6.62,6.62,0,0,1-.33-1.93v-.45c0-2.17,1.14-3.78,3.44-4.84a8.82,8.82,0,0,1,2.62-.44h5.35v-.11h0V33.92h6.57V16.19h0V9.62Z"
          transform="translate(-2.89 -1.95)"/>
    <rect fill="#c3ceef" x="22.18" y="13.23" width="6.9" height="18.76"/>
    <rect fill="#c3ceef" x="121.15" y="0.13" width="6.96" height="31.84"/>
    <path fill="#c3ceef"
          d="M15,28.32h-.3q-3.27,0-4.84-3.44a8.61,8.61,0,0,1-.44-2.62V16.91H9.35v-.05h8.94V10.29H9.46V2H2.89V22.37a11.16,11.16,0,0,0,4.55,9.39,12.78,12.78,0,0,0,7.3,2.16v0h8.38V28.32Z"
          transform="translate(-2.89 -1.95)"/>
</svg>